PathFileType	4	(X/Y/Z)	/Users/itak/Documents/Research/Walk-IL/dataset/trc/00257_00009.trc
DataRate	CameraRate	NumFrames	NumMarkers	Units	OrigDataRate	OrigDataStartFrame	OrigNumFrames
100.000000	100.000000	4	53	mm	100.000000	266	533
Frame#	Time	RPSI			LPSI			L3			STRN			T10			C7			CLAV			RBAK			LBAK			LSHO			LUPA			LAEL			LAOL			LWTS			LWPS			LFRA			LIFD			LHPS			LHTS			RSHO			RUPA			RAEL			RAOL			RWPS			RFRA			RIFD			RHTS			RHPS			RBHD			LFHD			RFHD			LBHD			LHIP			RHIP			RASI			LASI			LKNE			LTHI			LANK			LTIP			LTOE			LMT1			LMT5			LHEE			RKNE			RTHI			RANK			RTIP			RTOE			RMT5			RHEE			RWTS			RMT1			
		X1	Y1	Z1	X2	Y2	Z2	X3	Y3	Z3	X4	Y4	Z4	X5	Y5	Z5	X6	Y6	Z6	X7	Y7	Z7	X8	Y8	Z8	X9	Y9	Z9	X10	Y10	Z10	X11	Y11	Z11	X12	Y12	Z12	X13	Y13	Z13	X14	Y14	Z14	X15	Y15	Z15	X16	Y16	Z16	X17	Y17	Z17	X18	Y18	Z18	X19	Y19	Z19	X20	Y20	Z20	X21	Y21	Z21	X22	Y22	Z22	X23	Y23	Z23	X24	Y24	Z24	X25	Y25	Z25	X26	Y26	Z26	X27	Y27	Z27	X28	Y28	Z28	X29	Y29	Z29	X30	Y30	Z30	X31	Y31	Z31	X32	Y32	Z32	X33	Y33	Z33	X34	Y34	Z34	X35	Y35	Z35	X36	Y36	Z36	X37	Y37	Z37	X38	Y38	Z38	X39	Y39	Z39	X40	Y40	Z40	X41	Y41	Z41	X42	Y42	Z42	X43	Y43	Z43	X44	Y44	Z44	X45	Y45	Z45	X46	Y46	Z46	X47	Y47	Z47	X48	Y48	Z48	X49	Y49	Z49	X50	Y50	Z50	X51	Y51	Z51	X52	Y52	Z52	X53	Y53	Z53	

267	2.66	-732.861572265625	1026.139526367188	379.0818786621094	-803.499267578125	1024.01318359375	282.3222961425781	-770.9625854492188	1110.773315429688	322.573486328125	-571.2266235351562	1279.49072265625	153.749755859375	-758.0247802734375	1236.310424804688	329.0551147460938	-699.6586303710938	1493.029296875	276.0258483886719	-584.16650390625	1398.345092773438	167.1988372802734	-713.7142944335938	1359.386596679688	387.6166076660156	-791.8773803710938	1456.820190429688	213.8820953369141	-769.7349853515625	1452.20703125	111.4880065917969	-858.5263671875	1338.889282226562	90.95503234863281	-901.7701416015625	1133.814208984375	85.38600158691406	-898.6669311523438	1123.779418945312	172.2078552246094	-849.8483276367188	884.2985229492188	58.0819091796875	-934.5628051757812	880.4609375	42.1717414855957	-921.2478637695312	1027.237060546875	70.16316223144531	-893.2699584960938	694.5343017578125	74.3114013671875	-939.6559448242188	790.16845703125	39.30336761474609	-872.71728515625	780.726318359375	28.87362670898438	-545.4978637695312	1447.778686523438	361.0072326660156	-516.732177734375	1382.915283203125	423.5826416015625	-493.3823547363281	1103.638793945312	471.6339111328125	-580.9708862304688	1096.640869140625	434.8502197265625	-414.1461486816406	882.805419921875	392.751953125	-463.5799865722656	1035.86767578125	452.2992858886719	-420.0515747070312	716.7097778320312	274.0328369140625	-392.5858459472656	791.322998046875	276.9826354980469	-383.1634216308594	781.925537109375	348.5564270019531	-614.32763671875	1643.811401367188	278.2192993164062	-549.9185791015625	1675.608520507812	62.30355453491211	-475.1858520507812	1669.827880859375	128.3581085205078	-683.2481689453125	1654.05322265625	156.5005950927734	-794.485595703125	959.4682006835938	110.7055969238281	-594.2188110351562	982.9804077148438	416.6387634277344	-531.4529418945312	1019.372314453125	329.9414367675781	-685.1686401367188	999.3995361328125	97.33132934570312	-598.6624145507812	510.0529174804688	57.39273071289062	-668.8726196289062	639.16845703125	57.09165191650391	-561.5528564453125	32.60189819335938	126.036003112793	-590.9453125	276.2294921875	86.68254089355469	-393.2020874023438	65.52616119384766	-8.658382415771484	-395.8426208496094	52.7232780456543	69.74172973632812	-497.1484680175781	41.79367065429688	16.65725708007812	-556.9186401367188	37.0643310546875	206.6432647705078	-692.9859619140625	504.1050415039062	414.6090393066406	-583.6926879882812	753.9276123046875	406.9593811035156	-908.8570556640625	56.58901214599609	481.2121887207031	-732.5975341796875	389.2622985839844	415.7281799316406	-739.3922119140625	44.27602386474609	357.5184936523438	-801.605224609375	36.07611083984375	462.5218811035156	-989.105712890625	75.4835205078125	456.3486938476562	-434.8290405273438	906.2410888671875	314.2796630859375	-805.1161499023438	45.42340469360352	341.8960876464844	
268	2.67	-725.7557373046875	1026.336181640625	374.6090087890625	-796.840576171875	1024.333129882812	278.208251953125	-764.3983764648438	1111.003173828125	318.550537109375	-565.895751953125	1280.26513671875	148.9430541992188	-751.8811645507812	1236.594116210938	324.9903259277344	-694.4412231445312	1493.509033203125	271.6412048339844	-579.0241088867188	1399.079833984375	162.4703826904297	-707.821533203125	1359.877319335938	383.2098999023438	-786.830322265625	1457.1005859375	209.71435546875	-764.8607788085938	1452.543212890625	107.3036117553711	-853.38232421875	1339.096313476562	86.73654937744141	-896.2429809570312	1134.089721679688	80.57279205322266	-892.8519897460938	1123.59228515625	167.3221435546875	-843.9202270507812	884.5925903320312	51.50918960571289	-928.8215942382812	880.9375	36.1126823425293	-915.6116943359375	1027.553955078125	64.87747192382812	-887.1837768554688	695.0748291015625	67.38643646240234	-933.843994140625	790.6740112304688	32.78787612915039	-866.8798217773438	781.330322265625	22.02882385253906	-539.8738403320312	1448.660888671875	356.1513366699219	-510.9632263183594	1383.87744140625	418.7298278808594	-488.5840454101562	1104.68505859375	467.5355529785156	-576.4810791015625	1097.818603515625	431.2342834472656	-410.0106201171875	883.1988525390625	389.9483642578125	-458.9701232910156	1036.728393554688	448.5831604003906	-416.2547302246094	716.4617309570312	272.1663818359375	-388.5369262695312	790.9525146484375	274.7467346191406	-379.25	781.9839477539062	346.388671875	-609.2855224609375	1644.564208984375	273.3172912597656	-545.8008422851562	1676.207275390625	57.10995483398438	-470.7861938476562	1670.674194335938	122.8946838378906	-678.7245483398438	1654.462524414062	151.8243255615234	-788.5368041992188	960.1630859375	106.5360870361328	-587.0029296875	983.1620483398438	411.5577392578125	-524.7376098632812	1019.841003417969	324.6523132324219	-679.3070678710938	1000.386535644531	92.55042266845703	-593.4976806640625	510.4601745605469	53.28700256347656	-662.9241333007812	640.0741577148438	53.12910079956055	-561.2052001953125	32.91664886474609	125.7490234375	-587.5388793945312	276.3812561035156	83.71485137939453	-391.4886474609375	61.9732551574707	-9.424257278442383	-394.8340454101562	50.59872436523438	69.31050109863281	-496.3470153808594	41.22601318359375	16.21750450134277	-556.5925903320312	37.72934722900391	206.1660919189453	-685.713134765625	504.4148254394531	410.2853393554688	-576.6039428710938	754.1507568359375	401.738037109375	-907.4819946289062	59.48984527587891	481.53125	-726.5717163085938	389.7733154296875	412.5943603515625	-739.1683959960938	44.21915435791016	357.5111999511719	-800.9122314453125	36.21493911743164	462.3414001464844	-987.3955688476562	80.1898193359375	456.7073974609375	-430.3366088867188	906.2666015625	311.2879028320312	-804.6123046875	46.08699035644531	341.8488159179688	
269	2.68	-718.6929321289062	1026.627807617188	369.96142578125	-790.1694946289062	1024.7333984375	273.8604431152344	-757.8789672851562	1111.355834960938	314.3485717773438	-560.5885620117188	1281.224609375	144.0697784423828	-745.7489624023438	1236.997924804688	320.7888488769531	-689.2605590820312	1494.117065429688	267.2790222167969	-573.9246215820312	1399.990356445312	157.6930541992188	-701.8976440429688	1360.466186523438	378.8147583007812	-781.8224487304688	1457.503662109375	205.5723724365234	-760.0386962890625	1453.0517578125	103.1380767822266	-848.2858276367188	1339.461791992188	82.49689483642578	-890.6571044921875	1134.487060546875	75.70296478271484	-886.9884643554688	1123.519287109375	162.3768920898438	-837.67626953125	885.076171875	44.78080749511719	-922.7529907226562	881.5283203125	29.88980674743652	-909.8286743164062	1027.982788085938	59.48911285400391	-880.6405639648438	695.769775390625	60.24149322509766	-927.6396484375	791.2923583984375	26.07057762145996	-860.6422729492188	782.1132202148438	14.99386501312256	-534.2434692382812	1449.65673828125	351.2413635253906	-505.1322937011719	1384.96337890625	413.8019714355469	-483.7182312011719	1105.868530273438	463.42724609375	-571.9296264648438	1099.130981445312	427.6183776855469	-405.8631286621094	883.6829223632812	387.2413024902344	-454.3063354492188	1037.720825195312	444.8857421875	-412.4836120605469	716.2763671875	270.4335021972656	-384.4845581054688	790.6422729492188	272.6232604980469	-375.3427124023438	782.1138305664062	344.3377380371094	-604.2473754882812	1645.499267578125	268.4060363769531	-541.7093505859375	1676.906860351562	51.8951301574707	-466.4084167480469	1671.606689453125	117.4072189331055	-674.2112426757812	1655.03955078125	147.1516265869141	-782.4945068359375	960.8554077148438	102.133903503418	-579.8178100585938	983.5309448242188	406.3351440429688	-518.0167846679688	1020.482482910156	319.2398986816406	-673.3882446289062	1001.457824707031	87.59838104248047	-588.5985107421875	510.5977478027344	49.56130981445312	-657.4154052734375	640.6358642578125	49.32357025146484	-560.7720336914062	33.24148178100586	125.4885406494141	-584.2382202148438	276.4225463867188	81.04143524169922	-389.7344970703125	58.57810974121094	-10.08621597290039	-393.7716674804688	48.62017822265625	68.99203491210938	-495.4862670898438	40.80782699584961	15.80502605438232	-556.2393798828125	38.30876922607422	205.7374725341797	-677.8933715820312	504.7532958984375	405.7078552246094	-569.3721313476562	754.56640625	396.3571472167969	-905.9024047851562	62.67746353149414	481.8635864257812	-720.0134887695312	390.3245849609375	409.2719116210938	-738.9386596679688	44.17377471923828	357.5200500488281	-800.10009765625	36.40619659423828	462.1321105957031	-985.3766479492188	85.33907318115234	457.062744140625	-425.8029174804688	906.36767578125	308.3825988769531	-804.0297241210938	46.8167610168457	341.7591857910156	
270	2.69	-711.7127685546875	1027.02197265625	365.1327819824219	-783.5066528320312	1025.238525390625	269.2728881835938	-751.4318237304688	1111.822265625	309.9382629394531	-555.298095703125	1282.370483398438	139.1468658447266	-739.6510009765625	1237.508666992188	316.4210510253906	-684.141845703125	1494.840087890625	262.9394226074219	-568.8740234375	1401.080078125	152.8822937011719	-695.9877319335938	1361.130004882812	374.41845703125	-776.8663940429688	1458.012329101562	201.4543151855469	-755.2780151367188	1453.712890625	98.99528503417969	-843.2509765625	1339.959228515625	78.24134063720703	-885.0408325195312	1134.980224609375	70.76897430419922	-881.1038208007812	1123.538208007812	157.3686981201172	-831.1483154296875	885.7445678710938	37.93102264404297	-916.3661499023438	882.2042236328125	23.51571464538574	-903.9218139648438	1028.49658203125	53.99924087524414	-873.60693359375	696.5881958007812	52.86078262329102	-921.0287475585938	791.9924926757812	19.15967178344727	-853.9954833984375	783.0634155273438	7.778491020202637	-528.6556396484375	1450.756469726562	346.3129272460938	-499.292236328125	1386.158447265625	408.8367309570312	-478.7562866210938	1107.175415039062	459.2948303222656	-567.2823486328125	1100.559204101562	423.9829711914062	-401.6762084960938	884.245361328125	384.6011352539062	-449.5634460449219	1038.836303710938	441.1843566894531	-408.7478637695312	716.1408081054688	268.8096008300781	-380.4321899414062	790.3878784179688	270.5831604003906	-371.4384155273438	782.3004760742188	342.3716125488281	-599.2271118164062	1646.614501953125	263.500732421875	-537.6461791992188	1677.705322265625	46.68161773681641	-462.0549926757812	1672.620849609375	111.9148559570312	-669.7149658203125	1655.79443359375	142.5001831054688	-776.3809814453125	961.5599975585938	97.49129486083984	-572.7017211914062	984.0839233398438	400.9870910644531	-511.3120422363281	1021.293701171875	313.719970703125	-667.4234008789062	1002.587585449219	82.48662567138672	-583.96875	510.4875183105469	46.25371551513672	-652.3256225585938	640.860107421875	45.71849060058594	-560.27734375	33.56652450561523	125.2868118286133	-581.0914306640625	276.3576965332031	78.72536468505859	-388.0158081054688	55.39926147460938	-10.60731506347656	-392.6805725097656	46.77511596679688	68.80709838867188	-494.6116027832031	40.50523376464844	15.45211219787598	-555.8668212890625	38.79715347290039	205.3924407958984	-669.4732666015625	505.0907592773438	400.8660888671875	-562.005615234375	755.16357421875	390.8226928710938	-904.0831909179688	66.16835784912109	482.2082824707031	-712.8556518554688	390.8829650878906	405.7402954101562	-738.7142333984375	44.13861083984375	357.5465698242188	-799.177001953125	36.67270660400391	461.8904724121094	-982.9926147460938	90.95241546630859	457.40966796875	-421.2474060058594	906.5310668945312	305.5419006347656	-803.3591918945312	47.60541915893555	341.6296081542969	
